<svg version="1.1" xmlns="http://www.w3.org/2000/svg" width="512" height="512" viewBox="0 0 512 512"><title>mail-forward</title><path d="M512 182.857c0 4.857-2 9.429-5.428 12.857l-146.286 146.286c-3.428 3.428-8 5.428-12.857 5.428-10 0-18.286-8.286-18.286-18.286v-73.143h-64c-123.143 0-204 23.715-204 160 0 11.714 0.572 23.428 1.428 35.143 0.285 4.572 1.428 9.714 1.428 14.286 0 5.428-3.428 10-9.143 10-4 0-6-2-8-4.857-4.285-6-7.428-15.143-10.572-21.714-16.285-36.572-36.285-88.857-36.285-128.857 0-32 3.143-64.857 15.143-95.143 39.715-98.572 156.286-115.143 250-115.143h64v-73.143c0-10 8.286-18.285 18.286-18.285 4.857 0 9.428 2 12.857 5.428l146.286 146.286c3.428 3.429 5.428 8 5.428 12.857z"></path></svg>